<svg width="40" height="10" viewBox="0 0 40 10" fill="none" xmlns="http://www.w3.org/2000/svg">
<path fill-rule="evenodd" clip-rule="evenodd" d="M17.551 0.769043H34.6939C35.8847 0.769043 37.0266 1.21473 37.8686 2.00815C38.7106 2.80157 39.1837 3.87774 39.1837 4.99981C39.1837 6.12188 38.7106 7.19805 37.8686 7.99147C37.0266 8.7849 35.8847 9.23058 34.6939 9.23058H17.551C16.3603 9.23058 15.2183 8.7849 14.3763 7.99147C13.5343 7.19805 13.0612 6.12188 13.0612 4.99981C13.0612 3.87774 13.5343 2.80157 14.3763 2.00815C15.2183 1.21473 16.3603 0.769043 17.551 0.769043V0.769043ZM4.4898 1.53827C5.21634 1.53827 5.92657 1.74122 6.53067 2.12158C7.13477 2.50194 7.6056 3.04255 7.88364 3.67507C8.16168 4.30758 8.23443 5.00367 8.09269 5.67514C7.95094 6.34662 7.60108 6.9635 7.08734 7.4476C6.57359 7.93171 5.91904 8.26131 5.20646 8.39487C4.49387 8.52843 3.75526 8.45967 3.08402 8.19768C2.41278 7.93568 1.83907 7.49214 1.43542 6.92289C1.03177 6.35364 0.81633 5.68444 0.81633 4.99981C0.81633 4.08176 1.20335 3.20119 1.89226 2.55202C2.58117 1.90286 3.51553 1.53827 4.4898 1.53827V1.53827Z" stroke="#E90D3B" stroke-width="2"/>
</svg>
