<svg width="26" height="26" viewBox="0 0 26 26" fill="none" xmlns="http://www.w3.org/2000/svg">
<path fill-rule="evenodd" clip-rule="evenodd" d="M13 26C20.1797 26 26 20.1797 26 13C26 5.8203 20.1797 0 13 0C5.8203 0 0 5.8203 0 13C0 20.1797 5.8203 26 13 26ZM13 20C11.8954 20 11 19.1046 11 18V15H8C6.89543 15 6 14.1046 6 13C6 11.8954 6.89543 11 8 11H11V8C11 6.89543 11.8954 6 13 6C14.1046 6 15 6.89543 15 8V11H18C19.1046 11 20 11.8954 20 13C20 14.1046 19.1046 15 18 15H15V18C15 19.1046 14.1046 20 13 20Z" fill="#B8B8B8"/>
</svg>
